<svg width="21" height="19" viewBox="0 0 21 19" fill="none" xmlns="http://www.w3.org/2000/svg">
<path d="M10.41 15.2504L5.38064 18.2788C5.23643 18.369 5.08321 18.4095 4.92097 18.4005C4.75873 18.3915 4.61452 18.3419 4.48833 18.2518C4.36215 18.1617 4.26751 18.0445 4.20442 17.9003C4.14132 17.7561 4.1278 17.5938 4.16386 17.4136L5.4888 11.6812L1.05429 7.81448C0.910077 7.68829 0.824452 7.54859 0.797412 7.39536C0.770372 7.24214 0.774879 7.09342 0.810932 6.94921C0.846985 6.805 0.928104 6.68332 1.05429 6.58417C1.18047 6.48503 1.3337 6.42644 1.51396 6.40841L7.38158 5.89466L9.65292 0.486715C9.72502 0.324477 9.83318 0.202798 9.97739 0.121679C10.1216 0.0405596 10.2658 0 10.41 0C10.5542 0 10.6985 0.0405596 10.8427 0.121679C10.9869 0.202798 11.095 0.324477 11.1671 0.486715L13.4385 5.89466L19.3061 6.40841C19.4864 6.42644 19.6396 6.48503 19.7658 6.58417C19.892 6.68332 19.9731 6.805 20.0091 6.94921C20.0452 7.09342 20.0497 7.24214 20.0226 7.39536C19.9956 7.54859 19.91 7.68829 19.7658 7.81448L15.3313 11.6812L16.6562 17.4136C16.6923 17.5938 16.6787 17.7561 16.6156 17.9003C16.5526 18.0445 16.4579 18.1617 16.3317 18.2518C16.2055 18.3419 16.0613 18.3915 15.8991 18.4005C15.7369 18.4095 15.5836 18.369 15.4394 18.2788L10.41 15.2504Z" fill="#7691F3"/>
</svg>
