<svg width="20" height="19" viewBox="0 0 20 19" fill="none" xmlns="http://www.w3.org/2000/svg">
<path d="M5.42474 15.8994L9.66998 13.3576L13.9152 15.9264L12.7795 11.1133L16.511 7.86856L11.5898 7.43592L9.66998 2.89325L7.75016 7.40888L2.82893 7.84152L6.56041 11.0863L5.42474 15.8994ZM9.66998 15.2504L4.64059 18.2788C4.49638 18.369 4.34315 18.4095 4.18092 18.4005C4.01868 18.3915 3.87447 18.3419 3.74828 18.2518C3.6221 18.1617 3.52746 18.0445 3.46436 17.9003C3.40127 17.7561 3.38775 17.5938 3.4238 17.4136L4.74875 11.6812L0.314238 7.81448C0.170026 7.68829 0.0844004 7.54859 0.0573607 7.39536C0.030321 7.24214 0.0348276 7.09342 0.0708806 6.94921C0.106934 6.805 0.188053 6.68332 0.314238 6.58417C0.440423 6.48503 0.593648 6.42644 0.773913 6.40841L6.64153 5.89466L8.91287 0.486715C8.98497 0.324477 9.09313 0.202798 9.23734 0.121679C9.38155 0.0405596 9.52577 0 9.66998 0C9.81419 0 9.9584 0.0405596 10.1026 0.121679C10.2468 0.202798 10.355 0.324477 10.4271 0.486715L12.6984 5.89466L18.566 6.40841C18.7463 6.42644 18.8995 6.48503 19.0257 6.58417C19.1519 6.68332 19.233 6.805 19.2691 6.94921C19.3051 7.09342 19.3096 7.24214 19.2826 7.39536C19.2556 7.54859 19.1699 7.68829 19.0257 7.81448L14.5912 11.6812L15.9162 17.4136C15.9522 17.5938 15.9387 17.7561 15.8756 17.9003C15.8125 18.0445 15.7179 18.1617 15.5917 18.2518C15.4655 18.3419 15.3213 18.3915 15.159 18.4005C14.9968 18.4095 14.8436 18.369 14.6994 18.2788L9.66998 15.2504Z" fill="#7691F3"/>
</svg>
