<svg width="31" height="31" viewBox="0 0 31 31" fill="none" xmlns="http://www.w3.org/2000/svg">
<path d="M7.10413 25.1875H11.9479V17.1146H19.052V25.1875H23.8958V12.5938L15.5 6.29688L7.10413 12.5938V25.1875ZM7.10413 27.125C6.57131 27.125 6.11519 26.9353 5.73577 26.5559C5.35634 26.1764 5.16663 25.7203 5.16663 25.1875V12.5938C5.16663 12.287 5.23525 11.9964 5.37249 11.7219C5.50972 11.4474 5.69944 11.2214 5.94163 11.0437L14.3375 4.74687C14.516 4.61771 14.7027 4.52083 14.8975 4.45625C15.0923 4.39167 15.2953 4.35938 15.5063 4.35938C15.7174 4.35938 15.9188 4.39167 16.1107 4.45625C16.3026 4.52083 16.4866 4.61771 16.6625 4.74687L25.0583 11.0437C25.3005 11.2214 25.4902 11.4474 25.6274 11.7219C25.7647 11.9964 25.8333 12.287 25.8333 12.5938V25.1875C25.8333 25.7203 25.6436 26.1764 25.2642 26.5559C24.8847 26.9353 24.4286 27.125 23.8958 27.125H17.1145V19.0521H13.8854V27.125H7.10413Z" fill="#949494"/>
</svg>
