<svg width="31" height="31" viewBox="0 0 31 31" fill="none" xmlns="http://www.w3.org/2000/svg">
<path d="M5.42511 27.0766H11.2376V17.3891H19.7627V27.0766H25.5752V11.9641L15.5001 4.40782L5.42511 11.9641V27.0766ZM5.42511 29.4016C4.78573 29.4016 4.23838 29.1739 3.78307 28.7186C3.32775 28.2633 3.1001 27.716 3.1001 27.0766V11.9641C3.1001 11.596 3.18244 11.2472 3.34713 10.9178C3.51182 10.5884 3.73948 10.3172 4.0301 10.1041L14.1051 2.54782C14.3194 2.39282 14.5435 2.27657 14.7772 2.19907C15.011 2.12157 15.2545 2.08282 15.5078 2.08282C15.761 2.08282 16.0028 2.12157 16.2331 2.19907C16.4634 2.27657 16.6841 2.39282 16.8952 2.54782L26.9702 10.1041C27.2608 10.3172 27.4885 10.5884 27.6532 10.9178C27.8179 11.2472 27.9002 11.596 27.9002 11.9641V27.0766C27.9002 27.716 27.6725 28.2633 27.2172 28.7186C26.7619 29.1739 26.2146 29.4016 25.5752 29.4016H17.4377V19.7141H13.5626V29.4016H5.42511Z" fill="#6F8CF4"/>
<path d="M5.42511 27.0766H11.2376V17.3891H19.7627V27.0766H25.5752V11.9641L15.5001 4.40782L5.42511 11.9641V27.0766Z" fill="#6F8CF4"/>
</svg>
