<svg width="39" height="39" viewBox="0 0 39 39" fill="none" xmlns="http://www.w3.org/2000/svg">
<path d="M23.8068 33.1786L14.3906 29.8461L7.45435 32.5973C7.01518 32.8298 6.58247 32.8169 6.15622 32.5586C5.72997 32.3003 5.51685 31.9128 5.51685 31.3961V9.77358C5.51685 9.43775 5.61372 9.14067 5.80747 8.88233C6.00122 8.624 6.2531 8.43025 6.5631 8.30108L13.6156 5.82108C13.8739 5.74358 14.1323 5.70483 14.3906 5.70483C14.6489 5.70483 14.9073 5.74358 15.1656 5.82108L24.5818 9.11483L31.4793 6.36358C31.9185 6.15692 32.3512 6.17629 32.7775 6.42171C33.2037 6.66713 33.4168 7.04817 33.4168 7.56483V29.4586C33.4168 29.7428 33.32 29.9882 33.1262 30.1948C32.9325 30.4015 32.6935 30.5565 32.4093 30.6598L25.3568 33.1786C25.0985 33.2561 24.8402 33.2948 24.5818 33.2948C24.3235 33.2948 24.0652 33.2561 23.8068 33.1786Z" fill="#6F8CF4"/>
</svg>
