<svg width="31" height="31" viewBox="0 0 31 31" fill="none" xmlns="http://www.w3.org/2000/svg">
<path d="M15.5 15.4678C14.0791 15.4678 12.9166 15.0157 12.0125 14.1115C11.1083 13.2074 10.6562 12.0449 10.6562 10.624C10.6562 9.20319 11.1083 8.04069 12.0125 7.13652C12.9166 6.23236 14.0791 5.78027 15.5 5.78027C16.9208 5.78027 18.0833 6.23236 18.9875 7.13652C19.8916 8.04069 20.3437 9.20319 20.3437 10.624C20.3437 12.0449 19.8916 13.2074 18.9875 14.1115C18.0833 15.0157 16.9208 15.4678 15.5 15.4678ZM23.8958 25.8334H7.10413C6.57131 25.8334 6.11519 25.6437 5.73577 25.2643C5.35634 24.8848 5.16663 24.4287 5.16663 23.8959V22.798C5.16663 21.9799 5.37114 21.2803 5.78017 20.699C6.1892 20.1178 6.71663 19.6765 7.36246 19.3751C8.80482 18.7292 10.188 18.2449 11.5119 17.9219C12.8359 17.599 14.1652 17.4376 15.5 17.4376C16.8347 17.4376 18.1586 17.6044 19.4718 17.9381C20.785 18.2718 22.162 18.7528 23.6026 19.3813C24.2765 19.6854 24.8167 20.1264 25.2233 20.7042C25.63 21.282 25.8333 21.9799 25.8333 22.798V23.8959C25.8333 24.4287 25.6436 24.8848 25.2642 25.2643C24.8847 25.6437 24.4286 25.8334 23.8958 25.8334ZM7.10413 23.8959H23.8958V22.798C23.8958 22.4535 23.7935 22.1252 23.589 21.8131C23.3845 21.5009 23.1316 21.2695 22.8302 21.1188C21.4524 20.4515 20.193 19.994 19.052 19.7464C17.9111 19.4988 16.727 19.3751 15.5 19.3751C14.2729 19.3751 13.0781 19.4988 11.9156 19.7464C10.7531 19.994 9.49371 20.4515 8.13746 21.1188C7.83607 21.2695 7.5885 21.5009 7.39475 21.8131C7.201 22.1252 7.10413 22.4535 7.10413 22.798V23.8959ZM15.5 13.5303C16.3395 13.5303 17.0338 13.2558 17.5828 12.7068C18.1317 12.1579 18.4062 11.4636 18.4062 10.624C18.4062 9.78444 18.1317 9.09017 17.5828 8.54121C17.0338 7.99225 16.3395 7.71777 15.5 7.71777C14.6604 7.71777 13.9661 7.99225 13.4171 8.54121C12.8682 9.09017 12.5937 9.78444 12.5937 10.624C12.5937 11.4636 12.8682 12.1579 13.4171 12.7068C13.9661 13.2558 14.6604 13.5303 15.5 13.5303Z" fill="#949494"/>
</svg>
