<svg width="41" height="41" viewBox="0 0 41 41" fill="none" xmlns="http://www.w3.org/2000/svg">
<path d="M20.8501 20.458C19.003 20.458 17.4917 19.8703 16.3163 18.6949C15.1409 17.5195 14.5532 16.0082 14.5532 14.1611C14.5532 12.314 15.1409 10.8028 16.3163 9.62738C17.4917 8.45197 19.003 7.86426 20.8501 7.86426C22.6972 7.86426 24.2084 8.45197 25.3838 9.62738C26.5592 10.8028 27.1469 12.314 27.1469 14.1611C27.1469 16.0082 26.5592 17.5195 25.3838 18.6949C24.2084 19.8703 22.6972 20.458 20.8501 20.458ZM31.7647 33.9333H9.9355C9.24284 33.9333 8.64989 33.6867 8.15663 33.1934C7.66338 32.7002 7.41675 32.1072 7.41675 31.4146V29.9873C7.41675 28.9238 7.68262 28.0143 8.21435 27.2586C8.74609 26.503 9.43175 25.9293 10.2713 25.5375C12.1464 24.6979 13.9445 24.0682 15.6657 23.6484C17.3868 23.2286 19.1149 23.0187 20.8501 23.0187C22.5852 23.0187 24.3064 23.2356 26.0135 23.6694C27.7207 24.1032 29.5107 24.7286 31.3835 25.5456C32.2595 25.941 32.9618 26.5142 33.4905 27.2653C34.0191 28.0165 34.2834 28.9238 34.2834 29.9873V31.4146C34.2834 32.1072 34.0368 32.7002 33.5435 33.1934C33.0503 33.6867 32.4573 33.9333 31.7647 33.9333Z" fill="#6F8CF4"/>
</svg>
