<svg width="31" height="31" viewBox="0 0 31 31" fill="none" xmlns="http://www.w3.org/2000/svg">
<path d="M24.9938 26.3824L17.2115 18.6001C16.5656 19.1598 15.8126 19.5957 14.9524 19.9079C14.0921 20.22 13.1768 20.3761 12.2063 20.3761C9.87776 20.3761 7.9071 19.5688 6.29426 17.9542C4.68142 16.3396 3.875 14.3914 3.875 12.1094C3.875 9.8275 4.68229 7.87923 6.29688 6.26465C7.91146 4.65007 9.8651 3.84277 12.1578 3.84277C14.4505 3.84277 16.3988 4.65007 18.0026 6.26465C19.6064 7.87923 20.4083 9.82911 20.4083 12.1143C20.4083 13.0367 20.2576 13.9285 19.9563 14.7896C19.6549 15.6508 19.2028 16.4581 18.6 17.2115L26.4469 24.9938C26.6406 25.1756 26.7375 25.3986 26.7375 25.6629C26.7375 25.9273 26.6308 26.1661 26.4174 26.3796C26.2218 26.5752 25.9816 26.673 25.697 26.673C25.4124 26.673 25.1779 26.5761 24.9938 26.3824ZM12.174 18.4386C13.9231 18.4386 15.4099 17.8197 16.6342 16.5818C17.8586 15.344 18.4708 13.8532 18.4708 12.1094C18.4708 10.3657 17.8586 8.87489 16.6342 7.63704C15.4099 6.3992 13.9231 5.78027 12.174 5.78027C10.4069 5.78027 8.90488 6.3992 7.66791 7.63704C6.43097 8.87489 5.8125 10.3657 5.8125 12.1094C5.8125 13.8532 6.43097 15.344 7.66791 16.5818C8.90488 17.8197 10.4069 18.4386 12.174 18.4386Z" fill="#949494"/>
</svg>
