<svg width="39" height="39" viewBox="0 0 39 39" fill="none" xmlns="http://www.w3.org/2000/svg">
<path d="M30.9258 32.5587L21.5871 23.22C20.8121 23.8916 19.9084 24.4148 18.8762 24.7894C17.8439 25.1639 16.7454 25.3512 15.5808 25.3512C12.7866 25.3512 10.4218 24.3825 8.48642 22.445C6.55102 20.5075 5.58331 18.1696 5.58331 15.4312C5.58331 12.6929 6.55206 10.355 8.48956 8.41748C10.4271 6.47998 12.7714 5.51123 15.5227 5.51123C18.2739 5.51123 20.6119 6.47998 22.5364 8.41748C24.461 10.355 25.4233 12.6948 25.4233 15.437C25.4233 16.544 25.2425 17.6141 24.8808 18.6475C24.5191 19.6808 23.9766 20.6496 23.2533 21.5537L32.6696 30.8925C32.9021 31.1106 33.0183 31.3782 33.0183 31.6954C33.0183 32.0126 32.8903 32.2993 32.6342 32.5554C32.3994 32.7901 32.1113 32.9075 31.7697 32.9075C31.4281 32.9075 31.1468 32.7912 30.9258 32.5587Z" fill="#6F8CF4"/>
</svg>
