<svg width="43" height="43" viewBox="0 0 43 43" fill="none" xmlns="http://www.w3.org/2000/svg">
<g clip-path="url(#clip0_228_824)">
<path d="M35.2241 7.1487C30.4941 3.9237 24.6533 5.4287 21.5 9.11954C18.3466 5.4287 12.5058 3.90578 7.77581 7.1487C5.26748 8.8687 3.69081 11.7712 3.58331 14.835C3.33248 21.7866 9.49581 27.3587 18.9021 35.905L19.0812 36.0662C20.4429 37.3025 22.5391 37.3025 23.9008 36.0483L24.0979 35.8691C33.5041 27.3408 39.6496 21.7687 39.4166 14.817C39.3092 11.7712 37.7325 8.8687 35.2241 7.1487ZM21.6791 33.2354L21.5 33.2354L21.3208 33.2354C12.7925 25.5133 7.16664 20.407 7.16664 15.2291C7.16664 11.6458 9.85414 8.95829 13.4375 8.95829C16.1966 8.95829 18.8841 10.732 19.8337 13.1866H23.1841C24.1158 10.732 26.8033 8.95829 29.5625 8.95829C33.1458 8.95829 35.8333 11.6458 35.8333 15.2291C35.8333 20.407 30.2075 25.5133 21.6791 33.2354Z" fill="#8CA3F7"/>
</g>
<defs>
<clipPath id="clip0_228_824">
<rect width="43" height="43" fill="white"/>
</clipPath>
</defs>
</svg>
