<svg width="43" height="43" viewBox="0 0 43 43" fill="none" xmlns="http://www.w3.org/2000/svg">
<g clip-path="url(#clip0_235_1481)">
<path d="M35.2242 7.1487C30.4942 3.9237 24.6534 5.4287 21.5 9.11954C18.3467 5.4287 12.5059 3.90578 7.77587 7.1487C5.26754 8.8687 3.69087 11.7712 3.58337 14.835C3.33254 21.7866 9.49587 27.3587 18.9021 35.905L19.0813 36.0662C20.443 37.3025 22.5392 37.3025 23.9009 36.0483L24.098 35.8691C33.5042 27.3408 39.6496 21.7687 39.4167 14.817C39.3092 11.7712 37.7325 8.8687 35.2242 7.1487ZM21.6792 33.2354L21.5001 33.2354L21.3209 33.2354C12.7925 25.5133 7.1667 20.407 7.1667 15.2291C7.1667 11.6458 9.8542 8.95829 13.4375 8.95829C16.1967 8.95829 18.8842 10.732 19.8338 13.1866H23.1842C24.1159 10.732 26.8034 8.95829 29.5625 8.95829C33.1459 8.95829 35.8334 11.6458 35.8334 15.2291C35.8334 20.407 30.2075 25.5133 21.6792 33.2354Z" fill="#8CA3F7"/>
<path d="M21.6792 33.2354L21.5001 33.2354L21.3209 33.2354C12.7925 25.5133 7.1667 20.407 7.1667 15.2291C7.1667 11.6458 9.8542 8.95829 13.4375 8.95829C16.1967 8.95829 18.8842 10.732 19.8338 13.1866H23.1842C24.1159 10.732 26.8034 8.95829 29.5625 8.95829C33.1459 8.95829 35.8334 11.6458 35.8334 15.2291C35.8334 20.407 30.2075 25.5133 21.6792 33.2354Z" fill="#8CA3F7"/>
</g>
<defs>
<clipPath id="clip0_235_1481">
<rect width="43" height="43" fill="white"/>
</clipPath>
</defs>
</svg>
