<svg width="40" height="40" viewBox="0 0 40 40" fill="none" xmlns="http://www.w3.org/2000/svg">
<g clip-path="url(#clip0_235_705)">
<path d="M29.9999 21.6667H21.6666V30C21.6666 30.9167 20.9166 31.6667 19.9999 31.6667C19.0833 31.6667 18.3333 30.9167 18.3333 30V21.6667H9.99992C9.08325 21.6667 8.33325 20.9167 8.33325 20C8.33325 19.0834 9.08325 18.3334 9.99992 18.3334H18.3333V10C18.3333 9.08337 19.0833 8.33337 19.9999 8.33337C20.9166 8.33337 21.6666 9.08337 21.6666 10V18.3334H29.9999C30.9166 18.3334 31.6666 19.0834 31.6666 20C31.6666 20.9167 30.9166 21.6667 29.9999 21.6667Z" fill="white"/>
</g>
<defs>
<clipPath id="clip0_235_705">
<rect width="40" height="40" fill="white"/>
</clipPath>
</defs>
</svg>
