<svg width="20" height="21" viewBox="0 0 20 21" fill="none" xmlns="http://www.w3.org/2000/svg">
<path d="M4.01693 20.412C3.51683 20.412 3.08319 20.229 2.71601 19.8631C2.34883 19.4972 2.16524 19.0651 2.16524 18.5668V3.23937H1.86733C1.60689 3.23937 1.38802 3.15026 1.21072 2.97203C1.03339 2.7938 0.944733 2.5738 0.944733 2.31201C0.944733 2.05024 1.03339 1.83182 1.21072 1.65675C1.38802 1.48169 1.60689 1.39415 1.86733 1.39415H6.32137C6.32137 1.12923 6.41003 0.908144 6.58735 0.730911C6.76466 0.553696 6.98353 0.465088 7.24396 0.465088H12.756C13.0159 0.465088 13.2357 0.554959 13.4155 0.734702C13.5952 0.914445 13.6851 1.13426 13.6851 1.39415H18.1327C18.3931 1.39415 18.612 1.48328 18.7893 1.66152C18.9666 1.83975 19.0552 2.05975 19.0552 2.32151C19.0552 2.5833 18.9666 2.80172 18.7893 2.97677C18.612 3.15184 18.3931 3.23937 18.1327 3.23937H17.8347V18.5668C17.8347 19.0651 17.6511 19.4972 17.284 19.8631C16.9168 20.229 16.4832 20.412 15.983 20.412H4.01693ZM4.01693 3.23937V18.5668H15.983V3.23937H4.01693ZM6.85537 15.4251C6.85537 15.6671 6.93951 15.8716 7.10779 16.0387C7.27605 16.2059 7.48202 16.2894 7.72569 16.2894C7.96937 16.2894 8.17442 16.2059 8.34084 16.0387C8.50727 15.8716 8.59049 15.6671 8.59049 15.4251V6.35395C8.59049 6.11197 8.50528 5.90634 8.33485 5.73707C8.16443 5.5678 7.95737 5.48317 7.7137 5.48317C7.47002 5.48317 7.26604 5.5678 7.10178 5.73707C6.93751 5.90634 6.85537 6.11197 6.85537 6.35395V15.4251ZM11.4095 15.4251C11.4095 15.6671 11.4947 15.8716 11.6651 16.0387C11.8356 16.2059 12.0426 16.2894 12.2863 16.2894C12.53 16.2894 12.735 16.2059 12.9014 16.0387C13.0679 15.8716 13.1511 15.6671 13.1511 15.4251V6.35395C13.1511 6.11197 13.0665 5.90634 12.8974 5.73707C12.7282 5.5678 12.5212 5.48317 12.2762 5.48317C12.0312 5.48317 11.8256 5.5678 11.6591 5.73707C11.4927 5.90634 11.4095 6.11197 11.4095 6.35395V15.4251Z" fill="#F46F6F"/>
</svg>
