<svg width="26" height="27" viewBox="0 0 26 27" fill="none" xmlns="http://www.w3.org/2000/svg">
<path d="M9.40898 22.3156C8.86552 22.3156 8.40057 22.1221 8.01411 21.7351C7.62763 21.3481 7.43439 20.8828 7.43439 20.3394C7.43439 19.796 7.62789 19.3327 8.01489 18.9496C8.40189 18.5665 8.86711 18.3749 9.41055 18.3749C9.954 18.3749 10.4173 18.5668 10.8004 18.9504C11.1835 19.334 11.375 19.7975 11.375 20.341C11.375 20.8844 11.1832 21.3494 10.7996 21.7358C10.416 22.1223 9.95243 22.3156 9.40898 22.3156ZM16.5954 22.3156C16.052 22.3156 15.5877 22.1221 15.2026 21.7351C14.8175 21.3481 14.625 20.8828 14.625 20.3394C14.625 19.796 14.8181 19.3327 15.2044 18.9496C15.5907 18.5665 16.055 18.3749 16.5975 18.3749C17.1417 18.3749 17.6058 18.5668 17.9897 18.9504C18.3737 19.334 18.5656 19.7975 18.5656 20.341C18.5656 20.8844 18.3731 21.3494 17.9881 21.7358C17.6031 22.1223 17.1389 22.3156 16.5954 22.3156ZM9.40898 15.467C8.86552 15.467 8.40057 15.2739 8.01411 14.8876C7.62763 14.5013 7.43439 14.037 7.43439 13.4946C7.43439 12.9486 7.62789 12.4852 8.01489 12.1043C8.40189 11.7233 8.86711 11.5329 9.41055 11.5329C9.954 11.5329 10.4173 11.7241 10.8004 12.1067C11.1835 12.4892 11.375 12.9523 11.375 13.4961C11.375 14.0399 11.1832 14.5043 10.7996 14.8894C10.416 15.2745 9.95243 15.467 9.40898 15.467ZM16.5954 15.467C16.052 15.467 15.5877 15.2739 15.2026 14.8876C14.8175 14.5013 14.625 14.037 14.625 13.4946C14.625 12.9486 14.8181 12.4852 15.2044 12.1043C15.5907 11.7233 16.055 11.5329 16.5975 11.5329C17.1417 11.5329 17.6058 11.7241 17.9897 12.1067C18.3737 12.4892 18.5656 12.9523 18.5656 13.4961C18.5656 14.0399 18.3731 14.5043 17.9881 14.8894C17.6031 15.2745 17.1389 15.467 16.5954 15.467ZM9.40898 8.62495C8.86552 8.62495 8.40057 8.43181 8.01411 8.04553C7.62763 7.65927 7.43439 7.19492 7.43439 6.6525C7.43439 6.10829 7.62789 5.6442 8.01489 5.26025C8.40189 4.8763 8.86711 4.68433 9.41055 4.68433C9.954 4.68433 10.4173 4.87683 10.8004 5.26185C11.1835 5.64687 11.375 6.11109 11.375 6.65453C11.375 7.19798 11.1832 7.66225 10.7996 8.04734C10.416 8.43241 9.95243 8.62495 9.40898 8.62495ZM16.5954 8.62495C16.052 8.62495 15.5877 8.43181 15.2026 8.04553C14.8175 7.65927 14.625 7.19492 14.625 6.6525C14.625 6.10829 14.8181 5.6442 15.2044 5.26025C15.5907 4.8763 16.055 4.68433 16.5975 4.68433C17.1417 4.68433 17.6058 4.87683 17.9897 5.26185C18.3737 5.64687 18.5656 6.11109 18.5656 6.65453C18.5656 7.19798 18.3731 7.66225 17.9881 8.04734C17.6031 8.43241 17.1389 8.62495 16.5954 8.62495Z" fill="#B8B8B8"/>
</svg>
