<svg width="31" height="31" viewBox="0 0 31 31" fill="none" xmlns="http://www.w3.org/2000/svg">
<path d="M19.1167 26.8989L11.2698 24.1219L5.48958 26.4146C5.12361 26.6083 4.76302 26.5976 4.40781 26.3823C4.0526 26.167 3.875 25.8441 3.875 25.4135V7.39478C3.875 7.11491 3.95573 6.86735 4.11719 6.65207C4.27865 6.43679 4.48854 6.27533 4.74687 6.16769L10.624 4.10103C10.8392 4.03644 11.0545 4.00415 11.2698 4.00415C11.4851 4.00415 11.7003 4.03644 11.9156 4.10103L19.7625 6.84582L25.5104 4.55311C25.8764 4.38089 26.237 4.39703 26.5922 4.60155C26.9474 4.80606 27.125 5.12359 27.125 5.55415V23.7989C27.125 24.0357 27.0443 24.2403 26.8828 24.4125C26.7214 24.5847 26.5222 24.7139 26.2854 24.8L20.4083 26.8989C20.1931 26.9635 19.9778 26.9958 19.7625 26.9958C19.5472 26.9958 19.3319 26.9635 19.1167 26.8989ZM18.6646 24.7031V8.39582L12.3354 6.26457V22.5719L18.6646 24.7031ZM20.6021 24.7031L25.1875 23.1854V6.65207L20.6021 8.39582V24.7031ZM5.8125 24.3156L10.3979 22.5719V6.26457L5.8125 7.78228V24.3156Z" fill="#949494"/>
</svg>
