<svg width="24" height="24" viewBox="0 0 24 24" fill="none" xmlns="http://www.w3.org/2000/svg">
<path d="M22 13.6666H13.6667V22C13.6667 22.9167 12.9167 23.6667 12 23.6667C11.0834 23.6667 10.3334 22.9167 10.3334 22V13.6666H2.00004C1.08337 13.6666 0.333374 12.9166 0.333374 12C0.333374 11.0833 1.08337 10.3333 2.00004 10.3333H10.3334V1.99998C10.3334 1.08331 11.0834 0.333313 12 0.333313C12.9167 0.333313 13.6667 1.08331 13.6667 1.99998V10.3333H22C22.9167 10.3333 23.6667 11.0833 23.6667 12C23.6667 12.9166 22.9167 13.6666 22 13.6666Z" fill="white"/>
</svg>
