<svg width="25" height="24" viewBox="0 0 25 24" fill="none" xmlns="http://www.w3.org/2000/svg">
<path d="M16.125 19.0208L11.1042 14C10.6875 14.3611 10.2017 14.6423 9.64669 14.8437C9.0917 15.0451 8.50114 15.1458 7.875 15.1458C6.37275 15.1458 5.10135 14.625 4.06081 13.5833C3.02027 12.5416 2.5 11.2847 2.5 9.81246C2.5 8.34024 3.02083 7.08329 4.0625 6.04163C5.10417 4.99996 6.36458 4.47913 7.84375 4.47913C9.32292 4.47913 10.5799 4.99996 11.6146 6.04163C12.6493 7.08329 13.1667 8.34128 13.1667 9.81558C13.1667 10.4107 13.0694 10.9861 12.875 11.5416C12.6806 12.0972 12.3889 12.618 12 13.1041L17.0625 18.125C17.1875 18.2422 17.25 18.3861 17.25 18.5566C17.25 18.7272 17.1812 18.8813 17.0435 19.019C16.9173 19.1452 16.7623 19.2083 16.5787 19.2083C16.3951 19.2083 16.2438 19.1458 16.125 19.0208ZM7.85417 13.8958C8.98264 13.8958 9.94184 13.4965 10.7318 12.6979C11.5217 11.8993 11.9167 10.9375 11.9167 9.81246C11.9167 8.68746 11.5217 7.72565 10.7318 6.92704C9.94184 6.12843 8.98264 5.72913 7.85417 5.72913C6.71413 5.72913 5.74508 6.12843 4.94704 6.92704C4.14901 7.72565 3.75 8.68746 3.75 9.81246C3.75 10.9375 4.14901 11.8993 4.94704 12.6979C5.74508 13.4965 6.71413 13.8958 7.85417 13.8958Z" fill="#949494"/>
</svg>
